<?xml version="1.0" encoding="UTF-8"?>
<svg width="164px" height="164px" viewBox="0 0 164 164" version="1.1" xmlns="http://www.w3.org/2000/svg" xmlns:xlink="http://www.w3.org/1999/xlink">
    <title>Group 18</title>
    <g id="Page-1" stroke="none" stroke-width="1" fill="none" fill-rule="evenodd">
        <g id="Group-18">
            <g id="Group-11">
                <path d="M164,82 C164,127.288 127.288,164 82,164 C36.712,164 0,127.288 0,82 C0,36.712 36.712,0 82,0 C127.288,0 164,36.712 164,82" id="Fill-1" fill="#5BC5F2"></path>
                <path d="M107.0338,82.3452 C109.0578,80.7612 111.0428,79.1272 112.7568,77.2202 C106.6618,74.8222 108.9418,67.9752 104.5928,63.0582 C110.2348,64.8432 112.7138,67.4192 113.9308,69.7292 C113.9658,56.9642 118.9918,54.6972 121.6618,49.4902 C122.8748,51.3322 123.3898,57.6702 122.4298,63.2822 C126.8048,59.7692 133.7798,55.2702 139.1158,52.8832 C135.8858,58.1362 134.0528,65.6392 127.9058,69.7222 C131.1448,68.8182 137.5768,69.1212 143.6788,70.5922 C137.1738,72.9532 132.6898,77.7962 124.7248,77.3962 C127.8408,77.9022 131.1858,80.6032 133.2448,84.2382 C127.3068,83.0352 117.0108,84.0692 114.2258,78.5152 C111.8478,80.0902 110.0408,81.6582 108.4488,83.2322 C108.2138,82.6272 107.7408,82.3352 107.0338,82.3452" id="Fill-3" fill="#FFFFFF"></path>
                <path d="M52.7187,83.64 C49.2127,81.831 47.7287,80.872 45.3437,77.502 C44.4457,77.348 43.6187,77.502 42.8687,77.977 C40.5317,79.048 38.7087,80.808 36.8567,82.521 C34.5387,81.221 32.9057,81.32 30.6047,82.577 C32.4767,78.843 30.7307,78.713 26.7097,78.093 C27.7937,77.522 28.7147,76.901 28.5387,75.848 C28.2807,73.545 25.0467,71.601 21.4597,68.894 C24.9347,69.121 33.1517,70.31 30.3087,64.291 C29.6977,63.364 28.7727,62.518 27.5357,61.751 C33.7667,61.755 26.8647,52.362 25.5307,50.483 C27.8897,51.675 35.5587,56.6 38.3857,54.911 C38.7667,55.511 42.3867,61.623 43.8117,59.57 C45.2977,57.825 46.2167,53.502 46.4047,50.548 C48.9777,55.956 50.6517,63.442 57.5517,61.399 C56.0417,64.022 54.9427,67.231 56.0207,70.192 C52.8487,70.829 48.6987,73.492 46.8217,76.154 C49.0307,79.619 49.6347,80.544 53.7197,81.341 C52.9917,82.104 52.8147,82.873 52.7187,83.64" id="Fill-5" fill="#FFFFFF"></path>
                <path d="M88.4538,63.1265 C89.4718,63.1065 93.9188,61.9105 95.0788,61.5295 C101.1038,59.5455 102.8838,56.6655 104.1308,49.3435 C99.9408,49.6345 96.4708,47.4375 91.7358,50.2455 C89.7898,51.1545 85.7838,56.5475 83.8378,59.8925 C83.7238,59.7695 83.5918,59.6555 83.3768,59.5865 C86.3428,52.4105 90.9688,45.1425 81.3518,37.0885 L81.3468,37.0935 L81.3468,37.0965 L81.3078,37.1235 L81.3058,37.1275 L81.2958,37.1345 L81.2428,37.0885 C71.6228,45.1425 76.2478,52.4105 79.2218,59.5865 C79.0028,59.6555 78.8738,59.7695 78.7558,59.8925 C76.8118,56.5475 72.8108,51.1545 70.8618,50.2455 C66.1178,47.4375 62.6478,49.6345 58.4618,49.3435 C59.7078,56.6655 61.4948,59.5455 67.5168,61.5295 C68.6768,61.9105 73.1228,63.1065 74.1428,63.1265 C68.3418,63.5265 62.6208,65.5695 60.7428,71.7435 C67.9858,75.3835 75.4948,72.6005 80.0098,65.7575 C80.1408,65.6125 80.3088,65.5065 80.4898,65.4225 C80.6948,68.0435 80.4788,71.4875 80.4788,74.5045 C81.1008,74.3165 81.4988,74.5045 82.0028,74.5045 C81.8168,70.2075 81.8138,66.9125 82.0408,65.3835 L82.0438,65.3845 L82.0488,65.3885 L82.0718,65.3985 L82.0868,65.4055 L82.0918,65.4105 L82.1038,65.4135 L82.1038,65.4175 L82.1228,65.4255 L82.1278,65.4255 L82.1448,65.4345 L82.1498,65.4375 L82.1618,65.4465 L82.1688,65.4465 L82.1808,65.4495 L82.1928,65.4545 L82.2068,65.4615 L82.2118,65.4665 L82.2238,65.4755 L82.2268,65.4785 L82.2358,65.4845 L82.2478,65.4905 L82.2598,65.4955 L82.2698,65.4955 L82.2818,65.5045 L82.2828,65.5115 L82.2968,65.5195 L82.3038,65.5285 L82.3188,65.5315 L82.3188,65.5405 L82.3308,65.5405 L82.3428,65.5435 L82.3548,65.5525 L82.3588,65.5555 L82.3738,65.5695 L82.3838,65.5695 L82.3878,65.5815 L82.3948,65.5845 L82.4028,65.5935 L82.4128,65.5965 L82.4218,65.6055 L82.4298,65.6135 L82.4338,65.6205 L82.4488,65.6295 L82.4528,65.6395 L82.4608,65.6465 L82.4778,65.6515 L82.4818,65.6585 L82.4898,65.6635 L82.5038,65.6785 L82.5228,65.6875 L82.5228,65.6955 L82.5258,65.6955 L82.5348,65.7075 L82.5498,65.7195 L82.5688,65.7405 L82.5808,65.7575 C87.0958,72.6005 94.6108,75.3835 101.8558,71.7435 C99.9768,65.5695 94.2548,63.5265 88.4538,63.1265" id="Fill-7" fill="#FFFFFF"></path>
                <path d="M44.4138,101.201 C44.4138,101.642 44.3828,102.064 44.3228,102.472 L37.4528,102.472 C37.4348,104.488 38.4548,105.501 40.5068,105.501 C41.6688,105.501 42.7468,105.277 43.7438,104.823 L44.0158,106.989 C42.8058,107.46 41.4788,107.693 40.0388,107.693 C36.3828,107.693 34.5498,105.836 34.5498,102.12 C34.5498,100.412 35.0098,99.018 35.9298,97.941 C36.8558,96.869 38.1258,96.327 39.7488,96.327 C41.2998,96.327 42.4798,96.805 43.2968,97.757 C44.0428,98.62 44.4138,99.766 44.4138,101.201 L44.4138,101.201 Z M41.5798,100.569 C41.5938,99.891 41.4298,99.358 41.0838,98.972 C40.7428,98.587 40.2518,98.391 39.6368,98.391 C39.0378,98.391 38.5388,98.587 38.1498,98.982 C37.7598,99.382 37.5278,99.904 37.4528,100.569 L41.5798,100.569 Z M52.8498,107.409 C52.0738,107.597 51.2918,107.693 50.5178,107.693 C49.2948,107.693 48.4488,107.445 47.9878,106.948 C47.5248,106.452 47.2928,105.559 47.2928,104.271 L47.2928,98.741 L45.3978,98.741 L45.3978,96.568 L47.2928,96.568 L47.2928,93.208 L50.1468,92.465 L50.1468,96.568 L52.8498,96.568 L52.8498,98.741 L50.1468,98.741 L50.1468,103.526 C50.1468,104.214 50.2458,104.684 50.4378,104.942 C50.6318,105.198 50.9768,105.325 51.4658,105.325 C51.9548,105.325 52.4158,105.263 52.8498,105.144 L52.8498,107.409 Z" id="Fill-9" fill="#FFFFFF"></path>
            </g>
            <polygon id="Fill-12" fill="#FFFFFF" points="29.303 92.2408 29.303 98.3278 26.722 98.3278 25.96 98.3278 23.367 98.3278 23.367 92.2408 20.321 92.2408 20.321 107.4618 23.367 107.4618 23.367 100.8538 25.953 100.8538 26.717 100.8538 29.303 100.8538 29.303 107.4638 32.344 107.4638 32.344 92.2408"></polygon>
            <g id="Group-17" transform="translate(60.638600, 91.400000)" fill="#FFFFFF">
                <path d="M48.0237,16.053 L45.3637,16.053 C45.3637,15.423 45.4137,14.813 45.5027,14.232 L45.4597,14.232 C44.7987,15.604 43.6337,16.294 41.9467,16.294 C40.6297,16.294 39.6237,15.836 38.9427,14.934 C38.2557,14.023 37.9137,12.776 37.9137,11.184 C37.9137,9.312 38.4447,7.803 39.4807,6.661 C40.5357,5.525 41.9677,4.949 43.7837,4.949 C44.2877,4.949 44.7607,4.981 45.1857,5.036 L45.1857,0 L48.0237,0 L48.0237,16.053 Z M14.4617,0 L17.3147,0 L17.3147,4.708 C17.3147,5.644 17.2517,6.382 17.1127,6.927 L17.1557,6.946 C17.8717,5.589 19.0867,4.91 20.8017,4.91 C22.9947,4.91 24.0967,6.073 24.0967,8.396 L24.0967,16.053 L21.2657,16.053 L21.2657,9.076 C21.2657,7.86 20.8097,7.252 19.9027,7.252 C19.1887,7.252 18.5767,7.604 18.0787,8.299 C17.5677,8.998 17.3147,9.818 17.3147,10.784 L17.3147,16.053 L14.4617,16.053 L14.4617,0 Z M36.0087,9.777 C36.0087,10.217 35.9797,10.641 35.9197,11.049 L29.0507,11.049 C29.0357,13.069 30.0517,14.076 32.1057,14.076 C33.2707,14.076 34.3467,13.848 35.3407,13.398 L35.6077,15.571 C34.4047,16.038 33.0787,16.27 31.6357,16.27 C27.9767,16.27 26.1467,14.415 26.1467,10.699 C26.1467,8.987 26.6077,7.595 27.5327,6.522 C28.4547,5.449 29.7287,4.91 31.3517,4.91 C32.8927,4.91 34.0747,5.379 34.8897,6.333 C35.6437,7.195 36.0087,8.347 36.0087,9.777 L36.0087,9.777 Z M33.1787,9.139 C33.1917,8.471 33.0297,7.942 32.6867,7.549 C32.3347,7.163 31.8557,6.972 31.2397,6.972 C30.6367,6.972 30.1427,7.168 29.7447,7.568 C29.3617,7.952 29.1227,8.482 29.0507,9.139 L33.1787,9.139 Z M45.1857,10.393 L45.1857,7.342 C44.6397,7.233 44.1377,7.168 43.6917,7.168 C41.8347,7.168 40.9017,8.41 40.9017,10.88 C40.9017,12.934 41.5357,13.967 42.7997,13.967 C43.5167,13.967 44.1027,13.605 44.5657,12.872 C44.9797,12.199 45.1857,11.369 45.1857,10.393 L45.1857,10.393 Z M60.2107,9.777 C60.2107,10.217 60.1817,10.641 60.1207,11.049 L53.2427,11.049 C53.2307,13.069 54.2487,14.076 56.3027,14.076 C57.4627,14.076 58.5397,13.848 59.5357,13.398 L59.8097,15.571 C58.5987,16.038 57.2727,16.27 55.8347,16.27 C52.1737,16.27 50.3437,14.415 50.3437,10.699 C50.3437,8.987 50.8027,7.595 51.7237,6.522 C52.6467,5.449 53.9207,4.91 55.5417,4.91 C57.0937,4.91 58.2757,5.379 59.0967,6.333 C59.8347,7.195 60.2107,8.347 60.2107,9.777 L60.2107,9.777 Z M57.3737,9.139 C57.3887,8.471 57.2217,7.942 56.8747,7.549 C56.5307,7.163 56.0497,6.972 55.4327,6.972 C54.8317,6.972 54.3347,7.168 53.9417,7.568 C53.5587,7.952 53.3217,8.482 53.2427,9.139 L57.3737,9.139 Z M72.2377,16.053 L69.4037,16.053 L69.4037,9.076 C69.4037,7.86 68.9507,7.252 68.0407,7.252 C67.3277,7.252 66.7167,7.604 66.2137,8.299 C65.7087,8.998 65.4507,9.818 65.4507,10.784 L65.4507,16.053 L62.5997,16.053 L62.5997,5.149 L65.2947,5.149 C65.2947,5.909 65.2387,6.555 65.1357,7.084 L65.1647,7.098 C65.9197,5.641 67.1777,4.91 68.9367,4.91 C71.1357,4.91 72.2377,6.073 72.2377,8.396 L72.2377,16.053 Z M82.2057,12.677 C82.2057,13.759 81.7577,14.627 80.8597,15.283 C79.9557,15.942 78.7547,16.27 77.2517,16.27 C76.5747,16.27 75.7947,16.207 74.9367,16.075 L75.0017,13.772 C75.8597,13.996 76.6537,14.102 77.3887,14.102 C78.5957,14.102 79.1977,13.709 79.1977,12.934 C79.1977,12.442 78.8097,12.038 78.0377,11.727 C76.7867,11.234 76.0557,10.919 75.8677,10.784 C75.0957,10.263 74.7077,9.461 74.7077,8.396 C74.7077,7.387 75.1027,6.568 75.8917,5.936 C76.7387,5.251 77.9177,4.91 79.4177,4.91 C79.9677,4.91 80.6407,4.973 81.4507,5.109 L81.3597,7.322 C80.6917,7.13 80.0107,7.036 79.3067,7.036 C78.2047,7.036 77.6577,7.404 77.6577,8.155 C77.6577,8.62 78.0447,9.016 78.8367,9.339 C80.0737,9.84 80.8017,10.161 81.0267,10.328 C81.8097,10.88 82.2057,11.663 82.2057,12.677 L82.2057,12.677 Z" id="Fill-13"></path>
                <path d="M12.736,16.0448 L8.504,16.0448 L3.289,9.4708 L3.005,9.4578 L3.005,16.0448 L0,16.0448 L0,0.0738 C1.244,0.0238 2.843,0.0088 4.794,0.0088 C9.355,0.0088 11.511,1.4728 11.511,4.4678 C11.511,5.6358 11.197,6.6468 10.314,7.4498 C9.424,8.2448 8.11,8.7708 6.68,8.9638 C8.832,11.3388 10.695,13.5418 12.736,16.0448 M8.096,4.9018 C8.096,3.3758 6.706,2.5168 4.435,2.5168 C3.853,2.5168 3.383,2.5358 3.005,2.5768 L3.005,7.1868 C3.34,7.2198 3.784,7.2368 4.319,7.2368 C5.4,7.2368 6.255,7.0158 6.888,6.5708 C7.522,6.1298 8.096,5.6408 8.096,4.9018" id="Fill-15"></path>
            </g>
        </g>
    </g>
</svg>